<svg width="38" height="40" viewBox="0 0 38 40" fill="none" xmlns="http://www.w3.org/2000/svg">
<g clip-path="url(#clip0_135_419)">
<path d="M2.87939 21.7997V16.0469" stroke="#1a1a2e" stroke-width="1.5946" stroke-linecap="round" stroke-linejoin="round"/>
<path d="M2.87939 34.1386V28.3857" stroke="#1a1a2e" stroke-width="1.5946" stroke-linecap="round" stroke-linejoin="round"/>
<path d="M25.7446 34.1386V28.3857" stroke="#1a1a2e" stroke-width="1.5946" stroke-linecap="round" stroke-linejoin="round"/>
<path d="M4.79224 13.5967H10.551" stroke="#1a1a2e" stroke-width="1.5946" stroke-linecap="round" stroke-linejoin="round"/>
<path d="M34.1965 0.931152C36.5304 0.931152 38.4224 2.82198 38.4224 5.15359V22.0401C38.4222 24.3715 36.5303 26.2616 34.1965 26.2616H17.2916C14.9579 26.2615 13.0659 24.3714 13.0657 22.0401V5.15359C13.0657 2.82208 14.9577 0.931306 17.2916 0.931152H34.1965ZM21.9835 17.5674C21.5382 17.1226 20.8166 17.1226 20.3713 17.5674L16.2992 21.6353C15.854 22.0801 15.854 22.801 16.2992 23.2459C16.7445 23.6907 17.4662 23.6907 17.9114 23.2459L21.9835 19.178C22.4287 18.7332 22.4287 18.0122 21.9835 17.5674ZM18.0719 12.4575C17.4424 12.4575 16.9316 12.968 16.9315 13.5968C16.9315 14.2258 17.4423 14.7361 18.0719 14.7362H24.6023L24.6031 21.7998C24.6033 22.4287 25.1142 22.9383 25.7436 22.9383C26.3733 22.9383 26.8842 22.4281 26.8842 21.7991L26.8825 13.7173C26.8824 13.5268 26.8348 13.3474 26.7519 13.1896C26.5876 12.7623 26.1743 12.4575 25.6887 12.4575H18.0719Z" fill="#1a1a2e"/>
<path d="M5.26489 36.6494H11.0237" stroke="#1a1a2e" stroke-width="1.5946" stroke-linecap="round" stroke-linejoin="round"/>
<path d="M17.106 36.6494H22.8647" stroke="#1a1a2e" stroke-width="1.5946" stroke-linecap="round" stroke-linejoin="round"/>
</g>
<defs>
<clipPath id="clip0_135_419">
<rect width="38" height="40" fill="white"/>
</clipPath>
</defs>
</svg>