<svg width="582" height="90" viewBox="0 0 582 90" fill="none" xmlns="http://www.w3.org/2000/svg">
<path d="M58.5239 88.2002V38.3398C58.5239 32.5797 56.6859 27.8399 53.0095 24.1198C49.4516 20.4002 44.8268 18.5398 39.1345 18.5398C35.3394 18.5398 31.9601 19.3799 28.9954 21.0597C26.0306 22.74 23.7182 25.08 22.0576 28.08C20.3976 31.08 19.5673 34.5002 19.5673 38.3398L11.9184 34.0201C11.9184 27.4199 13.3412 21.5998 16.1873 16.5599C19.0335 11.4 22.9472 7.37977 27.9278 4.49976C33.0271 1.49972 38.7194 0 45.0048 0C51.4088 0 57.1011 1.67976 62.0817 5.03988C67.0623 8.27997 70.976 12.5397 73.8222 17.8202C76.6683 22.9801 78.0912 28.3801 78.0912 34.0201V88.2002H58.5239ZM0 88.2002V1.79979H19.5673V88.2002H0ZM138.355 90C131.122 90 124.658 88.3802 118.966 85.1402C113.392 81.9001 109.004 77.4603 105.803 71.8203C102.719 66.0603 101.177 59.4601 101.177 52.0203V1.79979H120.745V51.1201C120.745 55.3198 121.397 58.92 122.702 61.92C124.124 64.8 126.14 67.0199 128.75 68.5802C131.477 70.14 134.679 70.9201 138.355 70.9201C144.048 70.9201 148.376 69.2404 151.341 65.8802C154.424 62.4001 155.966 57.4803 155.966 51.1201V1.79979H175.533V52.0203C175.533 59.5801 173.933 66.2403 170.731 72.0004C167.647 77.6404 163.318 82.0801 157.745 85.3202C152.171 88.4403 145.708 90 138.355 90ZM236.299 90C228.59 90 221.594 88.0202 215.308 84.0599C209.142 80.1003 204.22 74.7603 200.544 68.0401C196.987 61.1999 195.207 53.58 195.207 45.18C195.207 36.66 196.987 29.0402 200.544 22.32C204.22 15.4797 209.142 10.0798 215.308 6.1201C221.594 2.03983 228.59 0 236.299 0C242.821 0 248.573 1.43971 253.554 4.31972C258.653 7.07971 262.685 10.9199 265.65 15.8398C268.615 20.7602 270.097 26.3402 270.097 32.5797V57.4202C270.097 63.6604 268.615 69.2404 265.65 74.1602C262.804 79.0801 258.831 82.9803 253.731 85.8603C248.632 88.6203 242.821 90 236.299 90ZM239.501 71.2802C246.735 71.2802 252.546 68.8203 256.933 63.8998C261.44 58.98 263.693 52.6798 263.693 45C263.693 39.8401 262.685 35.2797 260.669 31.3201C258.653 27.3598 255.807 24.2998 252.131 22.1399C248.573 19.86 244.363 18.7198 239.501 18.7198C234.757 18.7198 230.548 19.86 226.871 22.1399C223.313 24.2998 220.467 27.3598 218.333 31.3201C216.317 35.2797 215.308 39.8401 215.308 45C215.308 50.1599 216.317 54.7203 218.333 58.6799C220.467 62.6402 223.313 65.7602 226.871 68.0401C230.548 70.2 234.757 71.2802 239.501 71.2802ZM262.448 88.2002V64.9801L265.828 43.9198L262.448 23.0401V1.79979H282.017V88.2002H262.448ZM367.593 88.2002V38.3398C367.593 32.5797 365.756 27.8399 362.076 24.1198C358.517 20.4002 353.895 18.5398 348.202 18.5398C344.405 18.5398 341.027 19.3799 338.062 21.0597C335.097 22.74 332.788 25.08 331.125 28.08C329.462 31.08 328.637 34.5002 328.637 38.3398L320.985 34.0201C320.985 27.4199 322.41 21.5998 325.253 16.5599C328.102 11.4 332.015 7.37977 336.998 4.49976C342.097 1.49972 347.789 0 354.075 0C360.476 0 366.169 1.67976 371.152 5.03988C376.129 8.27997 380.042 12.5397 382.891 17.8202C385.734 22.9801 387.159 28.3801 387.159 34.0201V88.2002H367.593ZM309.065 88.2002V1.79979H328.637V88.2002H309.065ZM451.693 90C443.274 90 435.622 88.0202 428.744 84.0599C421.987 80.1003 416.65 74.7003 412.737 67.8601C408.823 61.0198 406.864 53.4 406.864 45C406.864 36.48 408.823 28.8602 412.737 22.1399C416.65 15.2997 421.987 9.89971 428.744 5.94006C435.622 1.97982 443.274 0 451.693 0C458.333 0 464.502 1.31969 470.195 3.95965C476.003 6.48018 480.922 10.1398 484.957 14.9402L472.148 28.08C469.66 25.08 466.636 22.8601 463.078 21.4198C459.636 19.86 455.845 19.0799 451.693 19.0799C446.832 19.0799 442.501 20.2201 438.71 22.5C435.029 24.6599 432.128 27.6599 429.988 31.5001C427.976 35.3397 426.964 39.8401 426.964 45C426.964 50.0399 427.976 54.5402 429.988 58.4999C432.128 62.3401 435.029 65.4001 438.71 67.68C442.501 69.8399 446.832 70.9201 451.693 70.9201C455.845 70.9201 459.636 70.2 463.078 68.7603C466.636 67.1999 469.66 64.92 472.148 61.92L484.957 75.0604C480.922 79.8602 476.003 83.5804 470.195 86.2204C464.502 88.7403 458.333 90 451.693 90ZM542.334 90C533.793 90 526.083 88.0802 519.204 84.24C512.448 80.2803 507.052 74.8804 503.017 68.0401C499.104 61.1999 497.15 53.52 497.15 45C497.15 36.48 499.104 28.8602 503.017 22.1399C506.93 15.2997 512.21 9.89971 518.85 5.94006C525.612 1.97982 533.083 0 541.264 0C549.213 0 556.207 1.8598 562.254 5.57999C568.423 9.30018 573.226 14.4001 576.662 20.8797C580.221 27.3598 582 34.7402 582 43.0202C582 44.4599 581.884 45.9602 581.645 47.5199C581.523 48.9602 581.291 50.58 580.93 52.3798H510.843V36.1799H570.796L563.499 42.6601C563.26 37.3802 562.254 32.9398 560.475 29.3402C558.696 25.7401 556.149 22.9801 552.829 21.0597C549.625 19.1399 545.654 18.1797 540.91 18.1797C535.927 18.1797 531.601 19.2599 527.92 21.4198C524.245 23.5802 521.402 26.6397 519.385 30.5999C517.367 34.4401 516.361 39.0599 516.361 44.4599C516.361 49.8598 517.425 54.6002 519.565 58.6799C521.699 62.7602 524.722 65.9403 528.635 68.2201C532.548 70.38 537.055 71.4602 542.154 71.4602C546.544 71.4602 550.573 70.6801 554.248 69.1203C558.045 67.56 561.248 65.2801 563.853 62.2801L576.308 75.0604C572.156 79.9803 567.115 83.7005 561.184 86.2204C555.26 88.7403 548.974 90 542.334 90Z" fill="white"/>
</svg>
