<svg width="108" height="32" viewBox="0 0 108 32" fill="none" xmlns="http://www.w3.org/2000/svg">
<path d="M27.9922 0.375C29.9027 0.375 31.4521 1.92345 31.4521 3.83398V17.6719C31.4521 19.5824 29.9028 21.1309 27.9922 21.1309H14.1543C12.2439 21.1306 10.6953 19.5823 10.6953 17.6719V3.83398C10.6954 1.9236 12.244 0.375239 14.1543 0.375H27.9922Z" fill="black"/>
<path d="M14.0029 18L17.3363 14.6666" stroke="#49A27A" stroke-width="1.86667" stroke-linecap="round" stroke-linejoin="round"/>
<path d="M2.35702 17.4748V12.7608" stroke="black" stroke-width="1.86667" stroke-linecap="round" stroke-linejoin="round"/>
<path d="M21.0731 17.4748L21.0722 10.8524" stroke="#4065ED" stroke-width="1.86667" stroke-linecap="round" stroke-linejoin="round"/>
<path d="M2.35702 27.5857V22.8716" stroke="black" stroke-width="1.86667" stroke-linecap="round" stroke-linejoin="round"/>
<path d="M21.0728 27.5857V22.8716" stroke="black" stroke-width="1.86667" stroke-linecap="round" stroke-linejoin="round"/>
<path d="M3.92325 10.753H8.6373" stroke="black" stroke-width="1.86667" stroke-linecap="round" stroke-linejoin="round"/>
<path d="M21.0283 10.753L14.7936 10.7529" stroke="#4065ED" stroke-width="1.86667" stroke-linecap="round" stroke-linejoin="round"/>
<path d="M4.30997 29.643H9.02401" stroke="black" stroke-width="1.86667" stroke-linecap="round" stroke-linejoin="round"/>
<path d="M14.0024 29.643H18.7164" stroke="black" stroke-width="1.86667" stroke-linecap="round" stroke-linejoin="round"/>
<path d="M44.4804 24V18.0907C44.4804 17.408 44.26 16.8462 43.8191 16.4053C43.3924 15.9644 42.8377 15.744 42.1551 15.744C41.7 15.744 41.2946 15.8436 40.9391 16.0427C40.5835 16.2418 40.3062 16.5191 40.1071 16.8747C39.908 17.2302 39.8084 17.6356 39.8084 18.0907L38.8911 17.5787C38.8911 16.7964 39.0617 16.1067 39.4031 15.5093C39.7444 14.8978 40.2137 14.4213 40.8111 14.08C41.4226 13.7244 42.1053 13.5467 42.8591 13.5467C43.6271 13.5467 44.3097 13.7458 44.9071 14.144C45.5044 14.528 45.9737 15.0329 46.3151 15.6587C46.6564 16.2702 46.8271 16.9102 46.8271 17.5787V24H44.4804ZM37.4617 24V13.76H39.8084V24H37.4617ZM54.0544 24.2133C53.1869 24.2133 52.4117 24.0213 51.7291 23.6373C51.0606 23.2533 50.5344 22.7271 50.1504 22.0587C49.7806 21.376 49.5957 20.5938 49.5957 19.712V13.76H51.9424V19.6053C51.9424 20.1031 52.0206 20.5298 52.1771 20.8853C52.3477 21.2267 52.5895 21.4898 52.9024 21.6747C53.2295 21.8596 53.6135 21.952 54.0544 21.952C54.7371 21.952 55.2562 21.7529 55.6118 21.3547C55.9815 20.9422 56.1664 20.3591 56.1664 19.6053V13.76H58.5131V19.712C58.5131 20.608 58.3211 21.3973 57.9371 22.08C57.5673 22.7484 57.0482 23.2747 56.3797 23.6587C55.7113 24.0284 54.9362 24.2133 54.0544 24.2133ZM65.8006 24.2133C64.8761 24.2133 64.037 23.9787 63.2833 23.5093C62.5437 23.04 61.9535 22.4071 61.5126 21.6107C61.0859 20.8 60.8726 19.8969 60.8726 18.9013C60.8726 17.8916 61.0859 16.9884 61.5126 16.192C61.9535 15.3813 62.5437 14.7413 63.2833 14.272C64.037 13.7884 64.8761 13.5467 65.8006 13.5467C66.5828 13.5467 67.2726 13.7173 67.8699 14.0587C68.4815 14.3858 68.965 14.8409 69.3206 15.424C69.6761 16.0071 69.8539 16.6684 69.8539 17.408V20.352C69.8539 21.0916 69.6761 21.7529 69.3206 22.336C68.9793 22.9191 68.5028 23.3813 67.8913 23.7227C67.2797 24.0498 66.5828 24.2133 65.8006 24.2133ZM66.1846 21.9947C67.0521 21.9947 67.749 21.7031 68.2753 21.12C68.8157 20.5369 69.0859 19.7902 69.0859 18.88C69.0859 18.2684 68.965 17.728 68.7233 17.2587C68.4815 16.7893 68.1401 16.4267 67.6993 16.1707C67.2726 15.9004 66.7677 15.7653 66.1846 15.7653C65.6157 15.7653 65.1108 15.9004 64.6699 16.1707C64.2433 16.4267 63.9019 16.7893 63.6459 17.2587C63.4041 17.728 63.2833 18.2684 63.2833 18.88C63.2833 19.4916 63.4041 20.032 63.6459 20.5013C63.9019 20.9707 64.2433 21.3404 64.6699 21.6107C65.1108 21.8667 65.6157 21.9947 66.1846 21.9947ZM68.9366 24V21.248L69.3419 18.752L68.9366 16.2773V13.76H71.2833V24H68.9366ZM81.5463 24V18.0907C81.5463 17.408 81.3258 16.8462 80.8849 16.4053C80.4583 15.9644 79.9036 15.744 79.2209 15.744C78.7658 15.744 78.3605 15.8436 78.0049 16.0427C77.6494 16.2418 77.372 16.5191 77.1729 16.8747C76.9738 17.2302 76.8742 17.6356 76.8742 18.0907L75.9569 17.5787C75.9569 16.7964 76.1276 16.1067 76.4689 15.5093C76.8103 14.8978 77.2796 14.4213 77.8769 14.08C78.4885 13.7244 79.1711 13.5467 79.9249 13.5467C80.6929 13.5467 81.3756 13.7458 81.9729 14.144C82.5703 14.528 83.0396 15.0329 83.3809 15.6587C83.7223 16.2702 83.8929 16.9102 83.8929 17.5787V24H81.5463ZM74.5276 24V13.76H76.8742V24H74.5276ZM91.6322 24.2133C90.6225 24.2133 89.7051 23.9787 88.8802 23.5093C88.0696 23.04 87.4296 22.4 86.9602 21.5893C86.4909 20.7787 86.2562 19.8756 86.2562 18.88C86.2562 17.8702 86.4909 16.9671 86.9602 16.1707C87.4296 15.36 88.0696 14.72 88.8802 14.2507C89.7051 13.7813 90.6225 13.5467 91.6322 13.5467C92.4287 13.5467 93.1682 13.7031 93.8509 14.016C94.5478 14.3147 95.138 14.7484 95.6216 15.3173L94.0856 16.8747C93.7869 16.5191 93.4242 16.256 92.9976 16.0853C92.5851 15.9004 92.13 15.808 91.6322 15.808C91.0491 15.808 90.53 15.9431 90.0749 16.2133C89.634 16.4693 89.2856 16.8249 89.0296 17.28C88.7878 17.7351 88.6669 18.2684 88.6669 18.88C88.6669 19.4773 88.7878 20.0107 89.0296 20.48C89.2856 20.9351 89.634 21.2978 90.0749 21.568C90.53 21.824 91.0491 21.952 91.6322 21.952C92.13 21.952 92.5851 21.8667 92.9976 21.696C93.4242 21.5111 93.7869 21.2409 94.0856 20.8853L95.6216 22.4427C95.138 23.0116 94.5478 23.4524 93.8509 23.7653C93.1682 24.064 92.4287 24.2133 91.6322 24.2133ZM102.502 24.2133C101.478 24.2133 100.554 23.9858 99.7291 23.5307C98.9184 23.0613 98.2713 22.4213 97.7877 21.6107C97.3184 20.8 97.0837 19.8898 97.0837 18.88C97.0837 17.8702 97.3184 16.9671 97.7877 16.1707C98.2571 15.36 98.89 14.72 99.6864 14.2507C100.497 13.7813 101.393 13.5467 102.374 13.5467C103.327 13.5467 104.166 13.7671 104.892 14.208C105.631 14.6489 106.207 15.2533 106.62 16.0213C107.046 16.7893 107.26 17.664 107.26 18.6453C107.26 18.816 107.246 18.9938 107.217 19.1787C107.203 19.3493 107.174 19.5413 107.132 19.7547H98.7264V17.8347H105.916L105.041 18.6027C105.013 17.9769 104.892 17.4507 104.678 17.024C104.465 16.5973 104.159 16.2702 103.761 16.0427C103.377 15.8151 102.901 15.7013 102.332 15.7013C101.734 15.7013 101.215 15.8293 100.774 16.0853C100.334 16.3413 99.9922 16.704 99.7504 17.1733C99.5086 17.6284 99.3877 18.176 99.3877 18.816C99.3877 19.456 99.5157 20.0178 99.7717 20.5013C100.028 20.9849 100.39 21.3618 100.86 21.632C101.329 21.888 101.87 22.016 102.481 22.016C103.007 22.016 103.491 21.9236 103.932 21.7387C104.387 21.5538 104.771 21.2836 105.084 20.928L106.577 22.4427C106.079 23.0258 105.475 23.4667 104.764 23.7653C104.053 24.064 103.299 24.2133 102.502 24.2133Z" fill="black"/>
</svg>
